<?xml version="1.0" encoding="UTF-8" standalone="no"?>
<!-- Created with Inkscape (http://www.inkscape.org/) -->

<svg
   xmlns:dc="http://purl.org/dc/elements/1.1/"
   xmlns:cc="http://creativecommons.org/ns#"
   xmlns:rdf="http://www.w3.org/1999/02/22-rdf-syntax-ns#"
   xmlns:svg="http://www.w3.org/2000/svg"
   xmlns="http://www.w3.org/2000/svg"
   version="1.1"
   width="354.66251"
   height="139.97501"
   id="svg2"
   xml:space="preserve"><metadata
     id="metadata8"><rdf:RDF><cc:Work
         rdf:about=""><dc:format>image/svg+xml</dc:format><dc:type
           rdf:resource="http://purl.org/dc/dcmitype/StillImage" /><dc:title></dc:title></cc:Work></rdf:RDF></metadata><defs
     id="defs6" /><g
     transform="matrix(1.25,0,0,-1.25,0,139.975)"
     id="g10"><g
       transform="scale(0.1,0.1)"
       id="g12"><path
         d="m 258.484,858.066 0,-287.121 290.457,0 0,290.446 -290.457,0 0,-3.325"
         id="path14"
         style="fill:#0c2f59;fill-opacity:1;fill-rule:nonzero;stroke:none" /><path
         d="m 258.484,858.066 0,-287.121 290.457,0 0,290.446 -290.457,0 0,-3.325 z"
         id="path16"
         style="fill:none;stroke:#ffffff;stroke-width:6.64944983;stroke-linecap:butt;stroke-linejoin:miter;stroke-miterlimit:4;stroke-opacity:1;stroke-dasharray:none" /><path
         d="m 258.465,545.508 0,-287.039 290.398,0 0,290.386 -290.398,0 0,-3.347"
         id="path18"
         style="fill:#f68712;fill-opacity:1;fill-rule:nonzero;stroke:none" /><path
         d="m 258.465,545.508 0,-287.039 290.398,0 0,290.386 -290.398,0 0,-3.347 z"
         id="path20"
         style="fill:none;stroke:#ffffff;stroke-width:6.69377995;stroke-linecap:butt;stroke-linejoin:miter;stroke-miterlimit:4;stroke-opacity:1;stroke-dasharray:none" /><path
         d="m 2236.45,261.969 36.37,0 0,101.554 88.23,-101.554 52.24,0 -103.32,110.082 91.72,87.597 -49.54,0 -79.33,-80.234 0,165.594 -36.37,0 0,-283.039"
         id="path22"
         style="fill:#0c2f59;fill-opacity:1;fill-rule:nonzero;stroke:none" /><path
         d="m 1441.17,261.969 34.82,0 0,27.863 0.78,0 c 9.67,-14.703 32.12,-32.508 67.33,-32.508 59.6,0 84.75,52.633 84.75,106.809 0,53.015 -27.86,99.84 -85.13,99.84 -34.45,0 -54.18,-13.543 -65.4,-31.735 l -0.78,0 0,112.313 -36.37,0 0,-282.582 z m 148.98,99.453 c 0.78,-30.957 -15.48,-74.684 -54.56,-74.684 -41.02,0 -58.05,40.629 -58.05,73.524 0,36.761 18.96,74.301 58.44,74.301 39.47,0 54.95,-37.54 54.17,-73.141"
         id="path24"
         style="fill:#0c2f59;fill-opacity:1;fill-rule:nonzero;stroke:none" /><path
         d="m 714.918,262.195 36.375,0 0,197.355 -36.375,0 0,-197.355 z"
         id="path26"
         style="fill:#0c2f59;fill-opacity:1;fill-rule:nonzero;stroke:none" /><path
         d="m 714.918,509.457 36.375,0 0,36.375 -36.375,0 0,-36.375 z"
         id="path28"
         style="fill:#0c2f59;fill-opacity:1;fill-rule:nonzero;stroke:none" /><path
         d="m 817.809,261.969 36.375,0 0,91.328 c 0,47.984 18.574,81.266 59.98,81.266 31.734,-1.934 41.797,-24.379 41.797,-70.43 l 0,-102.164 36.375,0 0,117.254 c 0,53.015 -22.832,84.75 -73.914,84.75 -27.477,0 -53.789,-13.543 -64.625,-35.989 l -0.774,0 0,31.344 -35.214,0 0,-197.359 z m 236.441,0 36.37,0 0,91.328 c 0,47.984 18.58,81.266 59.99,81.266 31.73,-1.934 41.79,-24.379 41.79,-70.43 l 0,-102.164 36.38,0 0,117.254 c 0,53.015 -22.84,84.75 -73.92,84.75 -27.47,0 -53.79,-13.543 -64.62,-35.989 l -0.78,0 0,31.344 -35.21,0 0,-197.359 z m 219.8,6.191 c 16.64,-8.898 35.6,-10.836 54.18,-10.836 35.21,0 68.88,19.352 68.88,61.531 0,63.079 -85.52,51.469 -85.52,91.715 0,16.25 16.25,23.993 34.82,23.993 8.52,0 30.19,-5.032 38.31,-10.063 l 3.1,31.73 c -14.32,4.258 -28.25,7.743 -45.28,7.743 -39.08,0 -69.65,-19.739 -69.65,-60.754 0,-55.34 85.52,-52.242 85.52,-88.235 0,-21.281 -20.51,-28.246 -37.15,-28.246 -10.45,0 -30.96,4.641 -45.28,13.93 l -1.93,-32.508 z m 403.61,-6.191 36.38,0 0,89.781 c 0,49.531 21.28,80.488 53.79,80.488 6.19,0 13.54,-0.773 20.12,-3.48 l 0,32.504 c -7.74,1.551 -13.16,2.711 -23.99,2.711 -20.9,0 -41.8,-14.707 -51.47,-35.215 l -0.77,0 0,30.57 -34.06,0 0,-197.359 z m 325.06,197.359 -36.38,0 0,-91.324 c 0,-47.988 -18.57,-81.266 -59.98,-81.266 -31.73,1.934 -41.79,24.379 -41.79,70.43 l 0,102.16 -36.38,0 0,-117.254 c 0,-53.015 22.83,-84.75 73.92,-84.75 27.47,0 53.79,13.547 64.62,35.992 l 0.77,0 0,-31.347 35.22,0 0,197.359 z m 190.39,-3.098 c -10.45,4.258 -29.41,7.743 -44.12,7.743 -60.36,0 -100.61,-43.34 -100.61,-103.325 0,-56.496 41.02,-103.324 100.61,-103.324 13.16,0 30.58,1.164 45.67,8.129 l -2.71,32.508 c -11.22,-7.356 -26.7,-11.223 -39.09,-11.223 -46.82,0 -65.78,38.696 -65.78,73.91 0,37.54 22.83,73.915 63.46,73.915 11.61,0 25.54,-2.711 39.47,-8.516 l 3.1,30.183"
         id="path30"
         style="fill:#0c2f59;fill-opacity:1;fill-rule:nonzero;stroke:none" /><path
         d="m 2213.5,772.477 -52.24,0 0,67.472 -36.37,-11.605 0,-55.867 -44.51,0 0,-29.414 44.51,0 0,-115.317 c 0,-39.473 23.22,-57.273 60.75,-57.273 11.61,0 22.83,3.097 30.96,5.418 l 0,30.957 c -5.42,-3.481 -13.54,-6.965 -24.77,-6.965 -16.64,0 -30.57,12.383 -30.57,35.215 l 0,107.965 52.24,0 0,29.414"
         id="path32"
         style="fill:#0c2f59;fill-opacity:1;fill-rule:nonzero;stroke:none" /><path
         d="m 2579.05,772.477 -52.24,0 0,67.472 -36.38,-11.605 0,-55.867 -44.5,0 0,-29.414 44.5,0 0,-115.317 c 0,-39.473 23.22,-57.273 60.76,-57.273 11.6,0 22.83,3.097 30.95,5.418 l 0,30.957 c -5.41,-3.481 -13.54,-6.965 -24.76,-6.965 -16.64,0 -30.57,12.383 -30.57,35.215 l 0,107.965 52.24,0 0,29.414"
         id="path34"
         style="fill:#0c2f59;fill-opacity:1;fill-rule:nonzero;stroke:none" /><path
         d="m 2005.49,821.672 36.3711,0 0,36.3789 -36.3711,0 0,-36.3789 z"
         id="path36"
         style="fill:#0c2f59;fill-opacity:1;fill-rule:nonzero;stroke:none" /><path
         d="m 1188.29,821.672 36.3711,0 0,36.3789 -36.3711,0 0,-36.3789 z"
         id="path38"
         style="fill:#0c2f59;fill-opacity:1;fill-rule:nonzero;stroke:none" /><path
         d="m 2285.74,803.484 36.3828,0 0,36.3789 -36.3828,0 0,-36.3789 z"
         id="path40"
         style="fill:#0c2f59;fill-opacity:1;fill-rule:nonzero;stroke:none" /><path
         d="m 2348.86,803.484 36.3711,0 0,36.3789 -36.3711,0 0,-36.3789 z"
         id="path42"
         style="fill:#0c2f59;fill-opacity:1;fill-rule:nonzero;stroke:none" /><path
         d="m 885.262,771.727 -36.379,0 0,-91.329 c 0,-47.984 -18.574,-81.265 -59.981,-81.265 -31.73,1.933 -41.793,24.379 -41.793,70.43 l 0,102.164 -36.375,0 0,-117.254 c 0,-53.016 22.829,-84.75 73.911,-84.75 27.476,0 53.789,13.543 64.625,35.988 l 0.777,0 0,-31.344 35.215,0 0,197.36 z m 61.91,-197.36 36.379,0 0,91.324 c 0,47.989 18.569,81.266 59.979,81.266 31.73,-1.934 41.79,-24.379 41.79,-70.43 l 0,-102.16 36.38,0 0,117.254 c 0,53.016 -22.83,84.746 -73.91,84.746 -27.48,0 -53.79,-13.543 -64.63,-35.988 l -0.773,0 0,31.348 -35.215,0 0,-197.36 z m 241.088,0 36.37,0 0,197.36 -36.37,0 0,-197.36 z m 261.21,197.36 -36.38,0 -54.56,-160.985 -0.78,0 -53.4,160.985 -39.86,0 70.82,-197.36 43.34,0 70.82,197.36 z m 186.52,-152.86 c -8.9,-7.351 -36.76,-19.734 -60.75,-19.734 -34.45,0 -65.02,26.703 -65.02,65.785 l 140.86,0 c 0,63.465 -21.28,111.449 -87.07,111.449 -55.72,0 -92.48,-41.406 -92.48,-99.84 0,-64.234 32.12,-106.804 102.16,-106.804 32.5,0 48.37,7.742 62.3,12.769 l 0,36.375 z m -125.77,73.141 c 2.71,25.539 17.42,54.949 53.02,54.949 31.34,0 49.15,-24.766 49.15,-54.949 l -102.17,0 z m 189.62,-117.641 36.38,0 0,89.778 c 0,49.535 21.28,80.492 53.79,80.492 6.19,0 13.54,-0.774 20.12,-3.485 l 0,32.508 c -7.74,1.547 -13.16,2.707 -23.99,2.707 -20.9,0 -41.79,-14.703 -51.47,-35.215 l -0.77,0 0,30.575 -34.06,0 0,-197.36 z m 133.89,6.192 c 16.64,-8.903 35.61,-10.836 54.18,-10.836 35.22,0 68.88,19.347 68.88,61.531 0,63.078 -85.52,51.465 -85.52,91.711 0,16.254 16.25,23.992 34.83,23.992 8.51,0 30.18,-5.027 38.31,-10.059 l 3.1,31.731 c -14.32,4.258 -28.25,7.738 -45.28,7.738 -39.09,0 -69.66,-19.734 -69.66,-60.754 0,-55.336 85.53,-52.242 85.53,-88.23 0,-21.285 -20.51,-28.25 -37.15,-28.25 -10.45,0 -30.96,4.644 -45.28,13.933 l -1.94,-32.507 z m 171.82,-6.192 36.38,0 0,197.36 -36.38,0 0,-197.36 z m 264.69,152.469 c 14.7,12.383 36.76,20.121 57.27,20.121 36.38,0 48.76,-17.41 48.76,-51.465 -14.32,0.774 -24.38,0.774 -38.7,0.774 -37.53,0 -91.71,-15.481 -91.71,-65.012 0,-42.957 29.8,-61.531 72.36,-61.531 33.28,0 52.63,18.187 61.15,30.183 l 0.77,0 0,-25.539 34.06,0 c -0.78,5.805 -1.55,16.254 -1.55,38.699 l 0,81.653 c 0,53.789 -22.83,81.648 -79.33,81.648 -25.16,0 -46.83,-7.738 -65.02,-18.574 l 1.94,-30.957 z m 106.03,-75.848 c 0,-29.41 -18.96,-51.855 -54.95,-51.855 -16.64,0 -36.76,11.222 -36.76,32.121 0,34.828 48.76,37.922 68.49,37.922 7.74,0 15.48,-0.774 23.22,-0.774 l 0,-17.414"
         id="path44"
         style="fill:#0c2f59;fill-opacity:1;fill-rule:nonzero;stroke:none" /></g></g></svg>